<?xml version="1.0" standalone="no"?>
<!DOCTYPE svg PUBLIC "-//W3C//DTD SVG 20010904//EN"
 "http://www.w3.org/TR/2001/REC-SVG-20010904/DTD/svg10.dtd">
<svg version="1.0" xmlns="http://www.w3.org/2000/svg"
 width="1387.000000pt" height="1387.000000pt" viewBox="0 0 1387.000000 1387.000000"
 preserveAspectRatio="xMidYMid meet">
<metadata>
Created by potrace 1.11, written by Peter Selinger 2001-2013
</metadata>
<g transform="translate(0.000000,1387.000000) scale(0.100000,-0.100000)"
fill="#000000" stroke="none">
<path d="M6590 13867 c-4 -4 -179 -18 -240 -19 -31 -1 -259 -25 -310 -33 -14
-2 -45 -7 -70 -10 -44 -6 -206 -31 -265 -41 -79 -13 -290 -58 -380 -80 -55
-14 -107 -26 -115 -28 -56 -14 -152 -40 -190 -51 -220 -68 -375 -119 -455
-150 -33 -13 -96 -37 -140 -53 -351 -133 -827 -368 -1125 -557 -232 -146 -378
-246 -540 -369 -97 -73 -258 -202 -270 -216 -3 -3 -21 -18 -40 -34 -101 -83
-268 -236 -419 -387 -684 -684 -1217 -1499 -1561 -2389 -123 -318 -123 -324
-24 -327 321 -11 314 -11 335 6 10 9 42 77 69 151 28 74 54 144 60 155 5 11
23 54 39 95 64 162 192 434 290 615 58 106 160 284 181 315 9 14 41 63 71 110
396 625 949 1213 1584 1685 385 286 720 487 1145 688 251 118 547 231 830 316
130 40 460 124 528 136 18 3 63 12 100 19 37 8 85 17 107 20 22 4 65 11 95 16
30 5 78 12 105 15 28 4 57 8 65 10 8 2 40 7 70 10 30 3 71 8 90 10 237 29 425
39 755 39 255 0 478 -8 555 -19 14 -2 57 -7 95 -11 39 -3 79 -8 90 -10 11 -2
45 -6 75 -9 30 -3 64 -8 76 -10 12 -3 39 -7 60 -10 21 -3 62 -10 89 -15 28 -5
66 -12 85 -14 45 -7 77 -14 165 -32 91 -20 88 -19 170 -39 39 -9 77 -18 85
-20 29 -7 266 -74 335 -95 39 -12 77 -23 85 -25 8 -2 16 -4 18 -5 1 -2 5 -3
10 -4 4 -1 12 -4 17 -7 6 -4 23 -9 39 -13 34 -8 360 -129 421 -156 22 -10 60
-26 85 -37 426 -186 842 -423 1205 -686 96 -70 280 -211 295 -227 3 -3 48 -41
100 -84 52 -44 100 -84 105 -90 6 -6 33 -31 60 -55 176 -155 453 -443 645
-671 109 -128 420 -547 420 -564 0 -2 26 -44 59 -92 128 -194 313 -538 446
-829 57 -125 157 -382 215 -553 39 -113 68 -183 81 -194 19 -16 44 -18 201
-18 99 0 188 4 198 10 15 8 17 16 9 47 -23 103 -166 489 -269 724 -430 981
-1085 1852 -1915 2546 -277 232 -591 453 -910 643 -181 107 -760 400 -791 400
-3 0 -24 9 -47 19 -169 77 -663 252 -807 286 -8 2 -85 22 -170 44 -143 37
-450 102 -545 116 -23 3 -52 8 -65 10 -14 3 -41 7 -60 10 -73 10 -187 24 -240
31 -30 3 -66 7 -80 9 -14 2 -70 6 -125 10 -55 4 -109 10 -120 13 -24 6 -819
15 -825 9z"/>
<path d="M3347 11386 c20 -23 55 -61 78 -85 22 -25 67 -75 100 -111 33 -36
103 -113 155 -170 52 -58 115 -127 140 -154 25 -27 52 -57 60 -66 8 -9 53 -58
100 -110 47 -52 96 -106 110 -121 14 -15 43 -46 64 -70 22 -24 57 -62 78 -85
l38 -40 -45 -50 c-25 -27 -68 -74 -94 -104 -27 -30 -70 -77 -96 -105 -41 -45
-155 -169 -195 -215 -22 -25 -171 -188 -205 -226 -48 -52 -188 -205 -208 -228
-10 -12 -33 -37 -50 -56 -18 -19 -38 -43 -45 -52 -13 -16 223 -17 3604 -17
l3617 0 -20 22 c-11 12 -75 87 -143 167 -67 80 -132 156 -144 170 -11 14 -46
54 -76 90 -30 36 -57 67 -60 70 -3 3 -84 97 -180 210 -96 113 -177 207 -180
210 -3 3 -25 29 -49 58 -38 46 -42 54 -30 70 22 28 395 466 453 532 12 14 71
84 131 155 60 72 112 132 115 135 12 11 167 196 173 206 5 8 -975 11 -3613 11
l-3620 0 37 -41z m7090 -25 c-8 -9 -72 -83 -142 -166 -70 -82 -138 -163 -152
-178 -13 -15 -60 -71 -105 -125 -45 -53 -85 -99 -88 -102 -3 -3 -71 -81 -149
-175 -79 -93 -151 -178 -160 -187 -35 -37 -43 -49 -38 -61 3 -7 36 -48 73 -92
38 -44 185 -217 328 -385 368 -431 420 -493 434 -511 12 -16 -249 -17 -3503
-17 -2869 0 -3513 3 -3507 13 4 7 34 42 67 77 33 36 78 84 100 109 22 24 88
96 145 159 58 63 109 120 115 126 5 6 46 51 90 99 44 49 91 100 104 114 13 14
58 64 100 110 42 47 100 110 128 140 29 31 53 58 53 61 0 3 -21 28 -46 55 -25
28 -78 86 -117 130 -40 44 -76 85 -82 91 -5 6 -48 53 -95 104 -47 51 -101 110
-120 131 -19 20 -46 50 -60 66 -13 15 -51 57 -85 93 -65 71 -210 230 -268 296
l-37 42 3515 0 c3250 0 3515 -2 3502 -17z"/>
<path d="M6665 10841 c-94 -24 -180 -101 -221 -197 -23 -55 -31 -64 -53 -64
-54 -1 -107 -12 -147 -31 -58 -27 -135 -112 -175 -194 -29 -60 -34 -80 -34
-143 0 -69 2 -75 29 -99 69 -59 178 5 269 160 41 68 44 63 22 -30 -24 -104 -7
-153 53 -153 37 0 110 40 143 78 43 48 35 59 -14 18 -53 -43 -94 -55 -104 -31
-3 10 8 90 26 179 17 89 34 174 37 190 24 135 54 215 93 250 25 23 91 31 133
17 29 -10 34 -9 60 16 15 15 28 29 28 33 0 8 -111 9 -145 1z m-269 -331 c7 -7
12 -16 9 -20 -3 -4 -7 -25 -11 -46 -6 -37 -12 -51 -63 -129 -30 -46 -37 -54
-94 -113 -81 -83 -123 -65 -114 50 9 113 77 247 137 272 23 9 120 -1 136 -14z"/>
<path d="M4805 10809 c-22 -4 -50 -10 -61 -13 -67 -14 -157 -82 -187 -142 -18
-36 -37 -110 -30 -118 3 -3 24 5 48 16 40 20 43 24 50 72 5 41 13 57 47 89 45
42 74 57 131 64 l38 5 -6 -43 c-4 -24 -8 -46 -10 -49 -2 -3 -6 -21 -9 -40 -3
-19 -8 -46 -11 -60 -3 -14 -7 -36 -10 -50 -3 -14 -7 -36 -10 -50 -3 -14 -10
-47 -15 -75 -17 -93 -21 -110 -27 -130 -4 -11 -8 -22 -8 -25 -16 -57 -43 -81
-98 -87 -31 -4 -51 -14 -77 -39 -34 -34 -34 -34 -10 -35 62 -2 157 -7 298 -13
143 -7 155 -6 195 13 56 28 83 51 91 77 6 21 6 21 -44 -3 -47 -22 -58 -23
-182 -19 -73 2 -148 5 -167 5 l-35 1 32 24 c74 54 102 98 128 201 l17 67 91
-6 c89 -6 91 -6 109 19 l18 25 -106 0 -106 0 5 33 c3 17 10 56 17 85 15 72 15
70 24 126 l8 48 91 -5 c81 -5 93 -8 112 -31 14 -16 20 -33 17 -46 -4 -13 -1
-20 10 -20 15 0 39 50 52 108 l7 33 -194 -2 c-106 -1 -211 -6 -233 -10z"/>
<path d="M7371 10754 c-36 -8 -66 -16 -68 -18 -5 -4 -10 -31 -18 -94 -5 -44
-4 -50 11 -48 10 2 23 11 28 22 46 82 97 114 176 110 74 -3 123 -45 133 -113
8 -48 -34 -122 -104 -187 -61 -57 -217 -164 -302 -207 -47 -23 -59 -39 -73
-94 l-6 -25 266 0 267 0 18 43 18 42 -226 5 -226 5 35 19 c63 34 233 138 310
190 125 84 160 131 156 214 -3 55 -30 91 -91 122 -41 20 -67 25 -145 27 -56 1
-122 -4 -159 -13z"/>
<path d="M5813 10703 c-33 -11 -43 -20 -43 -36 0 -12 -5 -39 -11 -59 -9 -35
-12 -38 -48 -38 -22 0 -44 -6 -51 -15 -11 -13 -6 -15 34 -15 56 0 55 9 16
-180 -36 -175 -38 -222 -9 -251 31 -31 107 -21 171 23 70 48 65 64 -10 28 -48
-23 -88 -26 -95 -6 -7 17 -3 41 29 206 13 69 25 136 27 150 4 24 8 25 69 26
43 0 72 6 88 17 24 17 22 17 -58 17 l-83 0 5 33 c13 71 19 117 15 116 -2 0
-23 -7 -46 -16z"/>
<path d="M9081 10689 c-43 -13 -106 -55 -124 -83 -37 -55 -28 -138 18 -174
l24 -19 -52 -34 c-98 -66 -134 -142 -98 -210 27 -51 88 -79 164 -75 133 6 242
100 231 199 -3 33 -44 90 -80 113 l-24 16 42 28 c92 59 127 120 102 178 -25
60 -114 87 -203 61z m109 -48 c52 -51 32 -127 -47 -181 l-33 -22 -36 27 c-53
40 -74 80 -63 119 13 47 57 81 107 84 36 2 48 -2 72 -27z m-118 -280 c79 -50
109 -110 82 -163 -23 -44 -50 -66 -90 -74 -47 -9 -82 2 -115 36 -51 51 -34
154 34 211 29 24 36 24 89 -10z"/>
<path d="M5414 10570 c-37 -12 -99 -67 -109 -99 -13 -43 4 -88 60 -150 30 -34
61 -74 69 -89 38 -74 -65 -118 -160 -69 -30 16 -32 15 -57 -11 l-26 -28 21
-13 c12 -8 51 -15 86 -17 53 -2 74 2 112 21 73 37 110 94 96 149 -3 13 -35 61
-71 106 -71 89 -81 124 -45 160 43 43 146 6 135 -49 -2 -14 1 -21 11 -21 8 0
14 3 15 8 0 4 2 14 4 22 15 60 15 69 -2 78 -25 12 -101 13 -139 2z"/>
<path d="M8092 10569 c-62 -15 -153 -107 -177 -180 -53 -159 15 -291 152 -298
165 -7 296 128 295 304 0 109 -62 174 -169 181 -32 1 -77 -2 -101 -7z m122
-29 c70 -26 80 -132 28 -297 -12 -39 -57 -99 -80 -108 -34 -14 -94 -17 -121
-6 -44 19 -59 56 -56 141 1 42 6 87 10 100 43 140 127 205 219 170z"/>
<path d="M8667 10573 c-2 -1 -23 -5 -47 -9 -25 -3 -54 -7 -65 -9 -11 -2 -23
-4 -26 -4 -13 -2 -4 -31 10 -32 27 -1 52 -7 59 -14 3 -3 -2 -45 -11 -93 -10
-48 -20 -100 -23 -117 -11 -69 -35 -150 -47 -157 -7 -4 -26 -8 -43 -8 -19 0
-34 -6 -38 -15 -5 -13 14 -15 129 -15 113 0 135 2 135 15 0 10 -10 15 -34 15
-34 0 -50 17 -41 43 2 6 6 28 9 47 3 19 8 44 10 55 2 11 16 77 30 146 14 69
28 133 32 142 4 12 0 15 -16 14 -11 -1 -22 -2 -23 -4z"/>
<path d="M6642 10209 l-43 -30 33 -42 c17 -23 32 -43 33 -44 1 -2 20 11 43 28
45 33 45 38 0 91 l-23 27 -43 -30z"/>
<path d="M1207 8004 c-1 -1 -28 -4 -59 -8 -252 -26 -441 -163 -563 -406 -94
-186 -133 -356 -129 -554 1 -72 5 -144 9 -161 40 -191 124 -385 211 -492 184
-225 477 -315 782 -242 62 15 179 69 239 110 186 128 314 368 348 654 6 54 7
267 1 300 -2 11 -6 41 -10 66 -11 78 -15 94 -42 175 -95 294 -298 486 -569
538 -66 13 -211 26 -218 20z m240 -143 c156 -47 297 -169 376 -326 101 -203
129 -514 66 -760 -86 -341 -320 -535 -639 -530 -326 6 -537 190 -629 550 -41
158 -46 303 -16 462 65 351 243 562 518 617 95 19 236 13 324 -13z"/>
<path d="M9077 8004 c-1 -1 -40 -4 -87 -7 -366 -24 -612 -293 -706 -772 -13
-68 -12 -253 2 -337 29 -181 111 -377 208 -502 174 -221 483 -320 773 -245
266 67 454 250 543 525 34 106 37 119 51 234 11 83 7 334 -5 395 -48 229 -161
435 -301 548 -69 56 -177 110 -261 132 -51 13 -210 35 -217 29z m155 -133
c128 -30 253 -112 346 -227 36 -45 109 -202 127 -274 27 -110 30 -139 29 -320
0 -145 -4 -190 -22 -263 -90 -362 -335 -560 -672 -541 -326 19 -531 221 -611
603 -21 99 -28 256 -16 346 14 103 58 251 103 343 87 180 260 314 439 339 22
3 42 7 44 9 8 7 188 -4 233 -15z"/>
<path d="M10856 7998 c-182 -24 -325 -93 -441 -212 -77 -79 -89 -95 -131 -171
-34 -61 -86 -185 -79 -185 2 0 -3 -16 -11 -35 -8 -19 -14 -37 -13 -40 0 -3 -2
-18 -5 -33 -13 -63 -18 -114 -21 -237 -6 -198 24 -356 95 -512 80 -173 209
-313 345 -376 50 -23 113 -47 140 -53 11 -2 31 -6 45 -9 64 -14 80 -15 150
-16 351 -6 578 147 725 487 102 236 124 481 64 719 -66 262 -213 485 -381 578
-145 82 -323 117 -482 95z m266 -133 c225 -57 386 -240 459 -520 21 -78 24
-114 24 -265 0 -190 -5 -238 -36 -345 -86 -292 -306 -476 -589 -492 -273 -15
-500 128 -612 385 -30 70 -68 182 -74 222 -3 19 -10 55 -14 80 -9 50 -7 271 3
287 4 6 8 27 11 47 6 48 51 184 85 261 89 197 257 327 456 353 84 12 215 6
287 -13z"/>
<path d="M2465 7981 l-30 -6 0 -908 c0 -500 3 -913 6 -918 3 -6 28 -9 55 -7
l49 3 0 798 c0 438 2 797 5 797 3 0 22 -33 43 -72 20 -40 66 -129 103 -198 36
-69 113 -217 171 -330 58 -113 109 -209 113 -215 4 -5 53 -100 110 -210 57
-110 112 -212 122 -227 41 -59 95 -27 155 89 88 169 248 484 413 808 95 187
177 344 181 349 5 6 9 -341 9 -792 l0 -802 55 0 55 0 0 920 0 920 -27 1 c-54
2 -78 -3 -94 -19 -17 -17 -59 -98 -350 -667 -84 -165 -194 -380 -244 -478 -50
-99 -95 -179 -100 -179 -4 0 -43 70 -87 154 -171 331 -241 464 -258 493 -10
17 -53 100 -97 185 -166 320 -252 482 -267 497 -14 15 -53 21 -91 14z"/>
<path d="M4603 7982 c-13 -2 -23 -9 -24 -15 0 -7 -1 -420 -2 -920 l-2 -907 53
0 c34 0 52 4 53 13 0 6 1 366 1 800 1 433 2 787 3 787 3 0 39 -53 302 -440
125 -184 382 -565 601 -890 175 -260 184 -270 233 -270 l36 0 0 920 0 920 -53
0 c-45 0 -54 -3 -54 -17 -1 -10 -1 -369 -1 -797 0 -428 -4 -775 -8 -770 -5 5
-66 95 -136 199 -71 105 -165 244 -210 310 -45 66 -175 260 -290 430 -337 501
-397 589 -414 609 -22 25 -62 43 -88 38z"/>
<path d="M12240 7980 l-115 -5 0 -918 0 -918 380 4 c209 2 389 6 400 9 11 3
40 11 65 17 221 57 382 212 483 466 20 50 38 101 41 115 3 14 13 59 22 100 22
100 22 315 -1 425 -33 160 -106 336 -177 429 -82 107 -195 190 -316 231 -68
23 -93 29 -182 41 -59 7 -453 10 -600 4z m670 -134 c206 -55 348 -192 427
-411 8 -22 16 -47 18 -55 2 -8 10 -42 18 -75 92 -364 -45 -817 -291 -961 -126
-74 -241 -92 -567 -87 -99 1 -199 2 -221 2 l-41 1 -1 797 c0 439 2 801 4 805
3 4 136 6 297 4 239 -2 304 -6 357 -20z"/>
<path d="M6392 7060 l1 -920 59 0 58 0 0 920 0 920 -60 0 -59 0 1 -920z"/>
<path d="M7050 7963 c-1 -24 -1 -1727 0 -1781 l0 -43 60 2 60 2 1 46 c0 25 1
216 1 424 l0 377 378 0 378 0 1 55 c0 50 -2 55 -22 56 -12 0 -182 1 -379 1
l-356 0 0 384 1 384 435 2 436 3 -1 40 c-1 22 -1 46 -2 53 -1 9 -107 12 -496
12 -465 0 -495 -1 -495 -17z"/>
<path d="M5024 5666 c-11 -30 34 -85 331 -401 38 -41 207 -224 250 -271 11
-12 56 -61 100 -109 113 -124 139 -155 141 -170 2 -17 -32 -55 -50 -55 -7 0
-208 198 -446 440 -239 242 -439 440 -446 440 -18 0 -45 -41 -36 -55 4 -7 31
-39 61 -71 124 -135 258 -280 284 -309 16 -16 61 -66 100 -109 40 -44 77 -85
84 -92 7 -6 45 -50 85 -96 191 -219 197 -228 198 -260 0 -25 -30 -37 -69 -26
-38 10 -124 96 -629 627 -166 174 -206 213 -227 221 -20 8 -23 5 -27 -19 -4
-27 11 -47 262 -337 24 -28 316 -372 342 -402 174 -207 204 -283 103 -258 -27
7 -21 1 -145 136 -52 57 -104 113 -115 124 -11 12 -63 69 -115 126 -52 58
-118 130 -147 160 -28 30 -60 65 -70 76 -26 30 -184 203 -211 230 -45 47 -91
19 -56 -34 30 -46 480 -628 627 -810 178 -221 331 -377 412 -419 115 -60 146
-67 320 -69 88 -1 175 -7 193 -13 64 -19 131 -73 234 -184 57 -61 133 -142
169 -181 166 -178 220 -240 217 -251 -2 -9 -524 -483 -732 -665 -16 -14 -39
-34 -50 -45 -12 -11 -57 -51 -101 -90 -44 -38 -97 -86 -119 -105 -82 -75 -170
-152 -301 -265 -49 -42 -103 -89 -120 -103 -16 -15 -66 -58 -110 -96 -262
-226 -330 -293 -397 -391 -88 -130 -112 -266 -65 -369 61 -133 153 -197 280
-197 166 0 399 200 677 581 30 41 60 82 67 90 7 8 110 145 229 304 200 268
380 501 479 621 124 151 392 469 445 528 3 4 15 -1 26 -10 21 -19 146 -160
229 -257 28 -33 55 -64 61 -70 5 -6 59 -71 118 -144 312 -387 535 -730 750
-1156 113 -224 117 -230 198 -337 109 -146 199 -202 330 -206 131 -4 254 49
337 144 143 161 157 359 40 530 -75 108 -180 194 -380 309 -267 153 -445 270
-659 432 -69 53 -127 98 -130 101 -3 3 -45 40 -95 81 -49 41 -97 82 -106 90
-8 8 -58 54 -110 101 -93 86 -297 287 -437 433 l-74 76 29 33 c93 111 402 464
423 484 57 53 129 66 205 37 161 -62 282 -73 420 -39 254 62 548 303 762 625
163 245 304 584 330 796 21 168 -1 335 -55 424 -74 121 -263 180 -478 151 -79
-11 -96 -16 -209 -54 -71 -24 -249 -107 -253 -119 -2 -4 -8 -8 -13 -8 -12 0
-174 -108 -259 -174 -303 -232 -488 -473 -584 -759 -61 -185 -60 -361 4 -504
32 -73 36 -131 12 -179 -16 -31 -349 -377 -479 -497 l-31 -29 -74 79 c-40 43
-137 143 -214 223 -161 165 -181 187 -217 250 -51 89 -70 166 -67 275 6 206 3
238 -19 295 -29 72 -184 281 -281 379 -50 50 -301 281 -394 362 -22 19 -65 57
-96 84 -30 28 -89 79 -129 115 -41 36 -79 70 -85 75 -99 90 -192 167 -216 180
-26 14 -31 14 -36 1z"/>
<path d="M308 4966 c-10 -7 -18 -18 -18 -24 0 -19 115 -359 168 -497 97 -250
245 -572 350 -760 19 -33 48 -85 64 -115 17 -30 56 -98 87 -150 30 -52 60
-103 66 -113 79 -138 316 -479 471 -677 190 -245 542 -624 759 -820 125 -114
307 -264 485 -403 19 -15 195 -139 280 -198 345 -239 799 -484 1250 -676 457
-194 1002 -355 1470 -434 170 -28 165 -27 255 -39 124 -17 146 -19 210 -25 33
-3 76 -8 95 -10 192 -21 882 -28 1080 -12 172 14 388 36 425 43 11 2 49 6 84
10 36 3 68 7 71 9 3 2 30 6 60 10 30 3 62 8 70 10 8 2 31 7 50 10 67 11 295
56 330 65 19 5 46 11 60 14 126 22 699 193 795 236 11 5 70 28 130 51 124 47
139 53 248 103 44 20 81 36 83 36 15 0 376 183 524 265 265 148 613 373 795
514 22 17 45 34 50 38 182 141 252 199 425 352 178 157 496 488 677 704 399
477 795 1114 1028 1652 26 61 55 128 65 150 30 66 145 382 184 503 37 117 43
156 26 167 -6 4 -103 7 -216 7 -189 1 -207 -1 -224 -18 -9 -11 -32 -64 -49
-119 -56 -176 -160 -449 -217 -573 -13 -29 -24 -54 -24 -57 0 -24 -256 -532
-302 -597 -10 -14 -18 -29 -18 -32 0 -11 -179 -296 -258 -411 -551 -802 -1304
-1485 -2192 -1989 -151 -86 -559 -280 -735 -350 -221 -87 -617 -218 -731 -240
-10 -2 -64 -16 -119 -30 -55 -14 -116 -28 -135 -31 -19 -3 -42 -8 -50 -10 -8
-2 -26 -6 -40 -9 -14 -2 -45 -9 -70 -14 -25 -6 -62 -13 -82 -16 -21 -3 -77
-13 -125 -21 -49 -9 -108 -18 -133 -20 -47 -5 -117 -14 -160 -21 -14 -2 -59
-6 -100 -10 -41 -3 -85 -7 -98 -9 -128 -20 -765 -27 -1007 -11 -71 4 -132 9
-135 11 -3 1 -41 6 -84 10 -43 4 -86 8 -95 10 -9 1 -41 6 -71 10 -110 14 -255
38 -370 61 -41 9 -88 18 -105 21 -75 13 -466 116 -615 163 -182 57 -465 161
-605 222 -180 78 -213 94 -405 191 -834 424 -1587 1055 -2184 1832 -330 429
-599 894 -827 1430 -33 78 -125 327 -169 460 -29 88 -61 165 -69 172 -24 18
-410 17 -433 -1z"/>
</g>
</svg>
